<?xml version="1.0"?>
<!DOCTYPE svg PUBLIC "-//W3C//DTD SVG 1.1//EN" "http://www.w3.org/Graphics/SVG/1.1/DTD/svg11.dtd">
<svg xmlns="http://www.w3.org/2000/svg" version="1.1" width="800" height="800">
      <circle cx="100" cy="100" r="50" fill="red"  />
      <circle cx="200" cy="100" r="25" fill="green"  />
      <circle cx="300" cy="100" r="10" fill="blue"  />
      <circle cx="75" cy="75" r="50" fill="black"  />
      <polygon points="100 100 200 300 300 200" fill="black" stroke="yellow"  />
      <line x1="400" y1="450" x2="35" y2="90" stroke="yellow" stroke-width="5" stroke-linecap="square"  />
      <circle cx="700" cy="810" r="25" fill="orange"  />
      <circle cx="600" cy="600" r="105" fill="black"  />
      <circle cx="600" cy="600" r="100" fill="yellow"  />
      <polygon points="600 600 550 450 450 550" fill="white" stroke="white"  />
      <line x1="600" y1="600" x2="565" y2="500" stroke="black" stroke-width="5" stroke-linecap="square"  />
      <line x1="600" y1="600" x2="500" y2="565" stroke="black" stroke-width="5" stroke-linecap="square"  />
      <circle cx="450" cy="450" r="50" fill="blue"  />
      <polygon points="400 450 500 450 500 550 400 550" fill="blue" stroke="blue"  />
      <circle cx="490" cy="550" r="10" fill="blue"  />
      <circle cx="410" cy="550" r="10" fill="blue"  />
      <circle cx="470" cy="550" r="10" fill="blue"  />
      <circle cx="430" cy="550" r="10" fill="blue"  />
      <circle cx="450" cy="550" r="10" fill="blue"  />
      <circle cx="475" cy="450" r="10" fill="white"  />
      <circle cx="425" cy="450" r="10" fill="white"  />
      <circle cx="472" cy="445" r="4" fill="blue"  />
      <circle cx="422" cy="445" r="4" fill="blue"  />
      <polygon points="-25 -25 50 -60" fill="purple" stroke="black"  />
</svg>
