<?xml version="1.0"?>
<!DOCTYPE svg PUBLIC "-//W3C//DTD SVG 1.1//EN" "http://www.w3.org/Graphics/SVG/1.1/DTD/svg11.dtd">
<svg xmlns="http://www.w3.org/2000/svg" version="1.1" width="800" height="800">
      <polygon points="0 0 100 0 0 100" fill="black" stroke="black"  />
      <polygon points="100 0 200 0 0 200" fill="black" stroke="black"  />
      <polygon points="200 0 300 0 0 300" fill="black" stroke="black"  />
      <polygon points="300 0 400 0 0 400" fill="black" stroke="black"  />
      <polygon points="400 0 500 0 0 500" fill="black" stroke="black"  />
      <polygon points="500 0 600 0 0 600" fill="black" stroke="black"  />
      <polygon points="600 0 700 0 0 700" fill="black" stroke="black"  />
      <polygon points="700 0 800 0 0 800" fill="black" stroke="black"  />
      <polygon points="800 0 800 100 100 800" fill="black" stroke="black"  />
      <polygon points="800 100 800 200 200 800" fill="black" stroke="black"  />
      <polygon points="800 200 800 300 300 800" fill="black" stroke="black"  />
      <polygon points="800 300 800 400 400 800" fill="black" stroke="black"  />
      <polygon points="800 400 800 500 500 800" fill="black" stroke="black"  />
      <polygon points="800 500 800 600 600 800" fill="black" stroke="black"  />
      <polygon points="800 600 800 700 700 800" fill="black" stroke="black"  />
      <polygon points="800 700 800 800 800 800" fill="black" stroke="black"  />
</svg>
